<svg width="22" height="22" viewBox="0 0 22 22" fill="none" xmlns="http://www.w3.org/2000/svg">
<path fill-rule="evenodd" clip-rule="evenodd" d="M11.0001 21.0833C5.43121 21.0833 0.916748 16.5689 0.916748 11C0.916748 5.43113 5.43121 0.916664 11.0001 0.916664C16.569 0.916664 21.0834 5.43113 21.0834 11C21.0834 16.5689 16.569 21.0833 11.0001 21.0833ZM17.783 15.6976C18.708 14.3645 19.2501 12.7455 19.2501 11C19.2501 6.44365 15.5564 2.75 11.0001 2.75C6.44373 2.75 2.75008 6.44365 2.75008 11C2.75008 12.7455 3.29218 14.3645 4.21721 15.6976C5.24859 14.3353 7.67183 13.7503 10.9974 13.75C8.94613 13.7487 7.33342 12.3071 7.33342 9.16666C7.33342 7.10944 8.78092 5.5 11.0001 5.5C13.2131 5.5 14.6667 7.26144 14.6667 9.35C14.6667 12.3563 13.0333 13.75 11.0001 13.75C14.327 13.75 16.7513 14.3349 17.783 15.6976ZM16.4677 17.1781C16.1994 16.2134 14.272 15.5833 11.0001 15.5833C7.72815 15.5833 5.80075 16.2134 5.53245 17.1781C6.98811 18.4673 8.90269 19.25 11.0001 19.25C13.0975 19.25 15.0121 18.4673 16.4677 17.1781ZM9.16675 9.16666C9.16675 11.2468 9.91677 11.9167 11.0001 11.9167C12.0796 11.9167 12.8334 11.2735 12.8334 9.35C12.8334 8.20455 12.1144 7.33333 11.0001 7.33333C9.83934 7.33333 9.16675 8.08117 9.16675 9.16666Z" fill="#263056"/>
</svg>
